<?xml version="1.0" encoding="UTF-8"?> <!-- Creator: CorelDRAW 2018 (64-Bit Evaluation Version) --> <svg xmlns="http://www.w3.org/2000/svg" xmlns:xlink="http://www.w3.org/1999/xlink" xml:space="preserve" width="125px" height="33px" version="1.1" style="shape-rendering:geometricPrecision; text-rendering:geometricPrecision; image-rendering:optimizeQuality; fill-rule:evenodd; clip-rule:evenodd" viewBox="0 0 125 33.54"> <defs> <style type="text/css"> <![CDATA[ .fil0 {fill:#2DB78A;fill-rule:nonzero} ]]> </style> </defs> <g id="Layer_x0020_1"> <metadata id="CorelCorpID_0Corel-Layer"></metadata> <path class="fil0" d="M11.55 2.17c-0.75,0 -1.37,0.02 -1.85,0.05 -0.49,0.03 -0.94,0.09 -1.34,0.19l0 13.94 3.38 0c2.16,0 3.87,-0.68 5.14,-2.05 1.27,-1.37 1.9,-3.17 1.9,-5.41 0,-2.3 -0.67,-4 -2.02,-5.08 -1.34,-1.09 -3.08,-1.64 -5.21,-1.64zm-3.19 28.31c0.72,0.16 1.41,0.33 2.06,0.5 0.66,0.17 1.3,0.38 1.93,0.63l0 1.36 -12.35 0 0 -1.36c0.69,-0.31 1.35,-0.55 1.97,-0.7 0.63,-0.16 1.25,-0.3 1.88,-0.43l0 -27.84c-0.81,-0.15 -1.53,-0.33 -2.16,-0.54 -0.63,-0.2 -1.19,-0.41 -1.69,-0.63l0 -1.36 4.13 0c1.26,0 2.63,-0.07 4.12,-0.19 1.49,-0.13 2.94,-0.19 4.35,-0.19 1.54,0 2.98,0.17 4.31,0.52 1.33,0.34 2.49,0.89 3.46,1.64 0.97,0.75 1.73,1.71 2.28,2.87 0.55,1.15 0.83,2.55 0.83,4.17 0,2.29 -0.61,4.18 -1.82,5.69 -1.21,1.5 -2.85,2.58 -4.92,3.23 1.35,2.13 2.75,4.25 4.23,6.34 1.47,2.1 3,4.18 4.6,6.25l2.55 1.36 0 1.17 -5.71 0 -1.78 -1.31c-0.88,-1.1 -1.68,-2.17 -2.4,-3.22 -0.72,-1.05 -1.39,-2.11 -2.02,-3.19 -0.62,-1.08 -1.21,-2.18 -1.76,-3.29 -0.55,-1.11 -1.1,-2.29 -1.67,-3.54l-4.42 0 0 12.06z"></path> <path class="fil0" d="M40 11c-1.78,0 -3.14,0.6 -4.08,1.81 -0.94,1.2 -1.5,3.32 -1.69,6.36l10.33 0c0.03,-0.28 0.05,-0.56 0.07,-0.82 0.01,-0.27 0.02,-0.53 0.02,-0.78 0,-2 -0.38,-3.6 -1.13,-4.79 -0.75,-1.19 -1.92,-1.78 -3.52,-1.78zm8.59 18.69c-0.25,0.53 -0.64,1.03 -1.17,1.5 -0.53,0.47 -1.14,0.88 -1.83,1.22 -0.69,0.34 -1.44,0.62 -2.25,0.82 -0.82,0.21 -1.65,0.31 -2.49,0.31 -1.85,0 -3.48,-0.29 -4.89,-0.87 -1.4,-0.58 -2.58,-1.41 -3.52,-2.49 -0.94,-1.08 -1.65,-2.37 -2.13,-3.87 -0.49,-1.51 -0.73,-3.2 -0.73,-5.07 0,-4.01 0.92,-7.06 2.77,-9.16 1.85,-2.1 4.46,-3.15 7.84,-3.15 1.1,0 2.17,0.15 3.24,0.45 1.06,0.3 2.01,0.79 2.84,1.48 0.83,0.69 1.5,1.6 2.02,2.75 0.51,1.14 0.77,2.55 0.77,4.24 0,0.54 -0.02,1.08 -0.07,1.62 -0.04,0.55 -0.13,1.14 -0.26,1.77l-14.64 0c0,1.31 0.16,2.54 0.49,3.68 0.33,1.14 0.82,2.14 1.48,2.98 0.66,0.85 1.48,1.51 2.49,2 1,0.48 2.17,0.72 3.52,0.72 1.09,0 2.2,-0.15 3.33,-0.46 1.13,-0.32 1.97,-0.72 2.54,-1.22l0.65 0.75z"></path> <path class="fil0" d="M61.46 30.62c0.78,0 1.47,-0.15 2.06,-0.46 0.6,-0.32 1.1,-0.69 1.51,-1.13 0.4,-0.44 0.73,-0.88 0.98,-1.34 0.25,-0.45 0.43,-0.84 0.52,-1.15l0 -4.93c-1.82,0 -3.3,0.09 -4.46,0.28 -1.16,0.19 -2.07,0.49 -2.72,0.89 -0.66,0.41 -1.12,0.92 -1.37,1.53 -0.25,0.61 -0.37,1.31 -0.37,2.09 0,1.35 0.34,2.39 1.03,3.12 0.69,0.74 1.63,1.1 2.82,1.1zm9.06 -3.8c0,0.69 0.02,1.29 0.05,1.79 0.03,0.5 0.06,1.03 0.09,1.59l3.24 0.47 0 0.99c-0.78,0.41 -1.65,0.77 -2.6,1.08 -0.96,0.31 -1.88,0.55 -2.75,0.7l-1.17 0c-0.32,-0.72 -0.51,-1.51 -0.57,-2.37 -0.06,-0.86 -0.11,-1.81 -0.14,-2.84l-0.23 0c-0.13,0.63 -0.37,1.26 -0.73,1.9 -0.36,0.64 -0.83,1.22 -1.41,1.72 -0.58,0.5 -1.26,0.9 -2.04,1.22 -0.79,0.31 -1.68,0.47 -2.68,0.47 -1.91,0 -3.47,-0.58 -4.67,-1.74 -1.21,-1.16 -1.81,-2.68 -1.81,-4.56 0,-1.43 0.29,-2.62 0.87,-3.54 0.58,-0.92 1.43,-1.65 2.56,-2.18 1.12,-0.54 2.52,-0.92 4.18,-1.15 1.65,-0.24 3.58,-0.42 5.77,-0.54 0.13,-1.35 0.17,-2.56 0.12,-3.64 -0.05,-1.08 -0.22,-2.01 -0.52,-2.77 -0.29,-0.77 -0.73,-1.36 -1.31,-1.79 -0.58,-0.42 -1.34,-0.63 -2.28,-0.63 -0.44,0 -0.93,0.02 -1.48,0.07 -0.55,0.05 -1.09,0.18 -1.62,0.4l-2.2 5.63 -1.22 0c-0.32,-0.94 -0.59,-1.91 -0.83,-2.91 -0.23,-1 -0.38,-1.98 -0.44,-2.96 1.19,-0.72 2.51,-1.28 3.97,-1.69 1.45,-0.4 3.07,-0.61 4.85,-0.61 1.6,0 2.88,0.23 3.83,0.68 0.96,0.46 1.68,1.05 2.18,1.77 0.51,0.72 0.83,1.51 0.99,2.39 0.16,0.88 0.24,1.75 0.24,2.63 0,1.88 -0.04,3.69 -0.12,5.42 -0.08,1.74 -0.12,3.41 -0.12,5z"></path> <path class="fil0" d="M102.07 32.97l-10.09 0 0 -1.17c0.84,-0.44 1.76,-0.81 2.77,-1.13l0 -11.13c0,-2.37 -0.35,-4.25 -1.04,-5.63 -0.68,-1.38 -1.94,-2.07 -3.75,-2.07 -0.78,0 -1.51,0.15 -2.18,0.43 -0.68,0.28 -1.27,0.66 -1.79,1.15 -0.52,0.48 -0.96,1.03 -1.34,1.64 -0.37,0.61 -0.67,1.25 -0.89,1.9l0 13.71c0.97,0.19 1.91,0.57 2.82,1.13l0 1.17 -10.14 0 0 -1.17c0.78,-0.41 1.81,-0.78 3.09,-1.13l0 -18.45 -3.09 -0.38 0 -1.22c0.81,-0.34 1.75,-0.65 2.81,-0.93 1.07,-0.29 2.18,-0.54 3.34,-0.76l1.17 0 0 5.26 0.05 0c0.65,-1.44 1.6,-2.67 2.84,-3.71 1.23,-1.03 2.73,-1.55 4.48,-1.55 1.25,0 2.37,0.15 3.36,0.45 0.98,0.3 1.81,0.82 2.46,1.57 0.66,0.75 1.16,1.76 1.51,3.03 0.34,1.27 0.51,2.87 0.51,4.81l0 11.88c1.25,0.22 2.29,0.6 3.1,1.13l0 1.17z"></path> <path class="fil0" d="M113.06 30.62c0.78,0 1.47,-0.15 2.06,-0.46 0.6,-0.32 1.1,-0.69 1.51,-1.13 0.4,-0.44 0.73,-0.88 0.98,-1.34 0.25,-0.45 0.42,-0.84 0.52,-1.15l0 -4.93c-1.82,0 -3.3,0.09 -4.46,0.28 -1.16,0.19 -2.07,0.49 -2.73,0.89 -0.65,0.41 -1.11,0.92 -1.36,1.53 -0.25,0.61 -0.37,1.31 -0.37,2.09 0,1.35 0.34,2.39 1.03,3.12 0.69,0.74 1.63,1.1 2.82,1.1zm9.06 -3.8c0,0.69 0.01,1.29 0.05,1.79 0.03,0.5 0.06,1.03 0.09,1.59l3.24 0.47 0 0.99c-0.78,0.41 -1.65,0.77 -2.61,1.08 -0.95,0.31 -1.87,0.55 -2.74,0.7l-1.18 0c-0.31,-0.72 -0.5,-1.51 -0.56,-2.37 -0.06,-0.86 -0.11,-1.81 -0.14,-2.84l-0.24 0c-0.12,0.63 -0.36,1.26 -0.72,1.9 -0.36,0.64 -0.83,1.22 -1.41,1.72 -0.58,0.5 -1.26,0.9 -2.04,1.22 -0.79,0.31 -1.68,0.47 -2.68,0.47 -1.91,0 -3.47,-0.58 -4.67,-1.74 -1.21,-1.16 -1.81,-2.68 -1.81,-4.56 0,-1.43 0.29,-2.62 0.87,-3.54 0.58,-0.92 1.43,-1.65 2.56,-2.18 1.12,-0.54 2.52,-0.92 4.18,-1.15 1.65,-0.24 3.58,-0.42 5.77,-0.54 0.13,-1.35 0.17,-2.56 0.12,-3.64 -0.05,-1.08 -0.22,-2.01 -0.52,-2.77 -0.3,-0.77 -0.73,-1.36 -1.31,-1.79 -0.58,-0.42 -1.34,-0.63 -2.28,-0.63 -0.44,0 -0.93,0.02 -1.48,0.07 -0.55,0.05 -1.09,0.18 -1.62,0.4l-2.21 5.63 -1.22 0c-0.31,-0.94 -0.58,-1.91 -0.82,-2.91 -0.23,-1 -0.38,-1.98 -0.44,-2.96 1.19,-0.72 2.51,-1.28 3.96,-1.69 1.46,-0.4 3.08,-0.61 4.86,-0.61 1.6,0 2.87,0.23 3.83,0.68 0.95,0.46 1.68,1.05 2.18,1.77 0.5,0.72 0.83,1.51 0.99,2.39 0.16,0.88 0.23,1.75 0.23,2.63 0,1.88 -0.04,3.69 -0.11,5.42 -0.08,1.74 -0.12,3.41 -0.12,5z"></path> </g> </svg> 